<svg width="1024" height="384" viewBox="0 0 1024 384" fill="none" xmlns="http://www.w3.org/2000/svg">
<rect width="1024" height="384" fill="#F0F0F5"/>
<path d="M207.062 231.266L199.531 252H196.453L205.125 229.25H207.109L207.062 231.266ZM213.375 252L205.828 231.266L205.781 229.25H207.766L216.469 252H213.375ZM212.984 243.578V246.047H200.203V243.578H212.984ZM219.156 235.094H222.062V254.016C222.062 255.047 221.896 255.922 221.562 256.641C221.24 257.359 220.75 257.901 220.094 258.266C219.448 258.641 218.63 258.828 217.641 258.828C217.38 258.828 217.078 258.802 216.734 258.75C216.38 258.698 216.083 258.635 215.844 258.562L215.859 256.234C216.057 256.276 216.281 256.307 216.531 256.328C216.781 256.359 217 256.375 217.188 256.375C217.615 256.375 217.974 256.297 218.266 256.141C218.557 255.984 218.776 255.734 218.922 255.391C219.078 255.047 219.156 254.589 219.156 254.016V235.094ZM218.859 230.609C218.859 230.141 219.005 229.745 219.297 229.422C219.589 229.099 220.01 228.938 220.562 228.938C221.125 228.938 221.552 229.099 221.844 229.422C222.135 229.745 222.281 230.141 222.281 230.609C222.281 231.057 222.135 231.443 221.844 231.766C221.552 232.078 221.125 232.234 220.562 232.234C220.01 232.234 219.589 232.078 219.297 231.766C219.005 231.443 218.859 231.057 218.859 230.609ZM237.078 248.094V235.094H239.984V252H237.219L237.078 248.094ZM237.625 244.531L238.828 244.5C238.828 245.625 238.708 246.667 238.469 247.625C238.24 248.573 237.865 249.396 237.344 250.094C236.823 250.792 236.141 251.339 235.297 251.734C234.453 252.12 233.427 252.312 232.219 252.312C231.396 252.312 230.641 252.193 229.953 251.953C229.276 251.714 228.693 251.344 228.203 250.844C227.714 250.344 227.333 249.693 227.062 248.891C226.802 248.089 226.672 247.125 226.672 246V235.094H229.562V246.031C229.562 246.792 229.646 247.422 229.812 247.922C229.99 248.411 230.224 248.802 230.516 249.094C230.818 249.375 231.151 249.573 231.516 249.688C231.891 249.802 232.276 249.859 232.672 249.859C233.901 249.859 234.875 249.625 235.594 249.156C236.312 248.677 236.828 248.036 237.141 247.234C237.464 246.422 237.625 245.521 237.625 244.531ZM255.047 248.719V228H257.953V252H255.297L255.047 248.719ZM243.672 243.734V243.406C243.672 242.115 243.828 240.943 244.141 239.891C244.464 238.828 244.917 237.917 245.5 237.156C246.094 236.396 246.797 235.812 247.609 235.406C248.432 234.99 249.349 234.781 250.359 234.781C251.422 234.781 252.349 234.969 253.141 235.344C253.943 235.708 254.62 236.245 255.172 236.953C255.734 237.651 256.177 238.495 256.5 239.484C256.823 240.474 257.047 241.594 257.172 242.844V244.281C257.057 245.521 256.833 246.635 256.5 247.625C256.177 248.615 255.734 249.458 255.172 250.156C254.62 250.854 253.943 251.391 253.141 251.766C252.339 252.13 251.401 252.312 250.328 252.312C249.339 252.312 248.432 252.099 247.609 251.672C246.797 251.245 246.094 250.646 245.5 249.875C244.917 249.104 244.464 248.198 244.141 247.156C243.828 246.104 243.672 244.964 243.672 243.734ZM246.578 243.406V243.734C246.578 244.578 246.661 245.37 246.828 246.109C247.005 246.849 247.276 247.5 247.641 248.062C248.005 248.625 248.469 249.068 249.031 249.391C249.594 249.703 250.266 249.859 251.047 249.859C252.005 249.859 252.792 249.656 253.406 249.25C254.031 248.844 254.531 248.307 254.906 247.641C255.281 246.974 255.573 246.25 255.781 245.469V241.703C255.656 241.13 255.474 240.578 255.234 240.047C255.005 239.505 254.703 239.026 254.328 238.609C253.964 238.182 253.51 237.844 252.969 237.594C252.438 237.344 251.807 237.219 251.078 237.219C250.286 237.219 249.604 237.385 249.031 237.719C248.469 238.042 248.005 238.49 247.641 239.062C247.276 239.625 247.005 240.281 246.828 241.031C246.661 241.771 246.578 242.562 246.578 243.406ZM269.469 252.312C268.292 252.312 267.224 252.115 266.266 251.719C265.318 251.312 264.5 250.745 263.812 250.016C263.135 249.286 262.615 248.422 262.25 247.422C261.885 246.422 261.703 245.328 261.703 244.141V243.484C261.703 242.109 261.906 240.885 262.312 239.812C262.719 238.729 263.271 237.812 263.969 237.062C264.667 236.312 265.458 235.745 266.344 235.359C267.229 234.974 268.146 234.781 269.094 234.781C270.302 234.781 271.344 234.99 272.219 235.406C273.104 235.823 273.828 236.406 274.391 237.156C274.953 237.896 275.37 238.771 275.641 239.781C275.911 240.781 276.047 241.875 276.047 243.062V244.359H263.422V242H273.156V241.781C273.115 241.031 272.958 240.302 272.688 239.594C272.427 238.885 272.01 238.302 271.438 237.844C270.865 237.385 270.083 237.156 269.094 237.156C268.438 237.156 267.833 237.297 267.281 237.578C266.729 237.849 266.255 238.255 265.859 238.797C265.464 239.339 265.156 240 264.938 240.781C264.719 241.562 264.609 242.464 264.609 243.484V244.141C264.609 244.943 264.719 245.698 264.938 246.406C265.167 247.104 265.495 247.719 265.922 248.25C266.359 248.781 266.885 249.198 267.5 249.5C268.125 249.802 268.833 249.953 269.625 249.953C270.646 249.953 271.51 249.745 272.219 249.328C272.927 248.911 273.547 248.354 274.078 247.656L275.828 249.047C275.464 249.599 275 250.125 274.438 250.625C273.875 251.125 273.182 251.531 272.359 251.844C271.547 252.156 270.583 252.312 269.469 252.312ZM297.203 247.516C297.203 247.099 297.109 246.714 296.922 246.359C296.745 245.995 296.375 245.667 295.812 245.375C295.26 245.073 294.427 244.812 293.312 244.594C292.375 244.396 291.526 244.161 290.766 243.891C290.016 243.62 289.375 243.292 288.844 242.906C288.323 242.521 287.922 242.068 287.641 241.547C287.359 241.026 287.219 240.417 287.219 239.719C287.219 239.052 287.365 238.422 287.656 237.828C287.958 237.234 288.38 236.708 288.922 236.25C289.474 235.792 290.135 235.432 290.906 235.172C291.677 234.911 292.536 234.781 293.484 234.781C294.839 234.781 295.995 235.021 296.953 235.5C297.911 235.979 298.646 236.62 299.156 237.422C299.667 238.214 299.922 239.094 299.922 240.062H297.031C297.031 239.594 296.891 239.141 296.609 238.703C296.339 238.255 295.938 237.885 295.406 237.594C294.885 237.302 294.245 237.156 293.484 237.156C292.682 237.156 292.031 237.281 291.531 237.531C291.042 237.771 290.682 238.078 290.453 238.453C290.234 238.828 290.125 239.224 290.125 239.641C290.125 239.953 290.177 240.234 290.281 240.484C290.396 240.724 290.594 240.948 290.875 241.156C291.156 241.354 291.552 241.542 292.062 241.719C292.573 241.896 293.224 242.073 294.016 242.25C295.401 242.562 296.542 242.938 297.438 243.375C298.333 243.812 299 244.349 299.438 244.984C299.875 245.62 300.094 246.391 300.094 247.297C300.094 248.036 299.938 248.714 299.625 249.328C299.323 249.943 298.88 250.474 298.297 250.922C297.724 251.359 297.036 251.703 296.234 251.953C295.443 252.193 294.552 252.312 293.562 252.312C292.073 252.312 290.812 252.047 289.781 251.516C288.75 250.984 287.969 250.297 287.438 249.453C286.906 248.609 286.641 247.719 286.641 246.781H289.547C289.589 247.573 289.818 248.203 290.234 248.672C290.651 249.13 291.161 249.458 291.766 249.656C292.37 249.844 292.969 249.938 293.562 249.938C294.354 249.938 295.016 249.833 295.547 249.625C296.089 249.417 296.5 249.13 296.781 248.766C297.062 248.401 297.203 247.984 297.203 247.516ZM310.906 252.312C309.729 252.312 308.661 252.115 307.703 251.719C306.755 251.312 305.938 250.745 305.25 250.016C304.573 249.286 304.052 248.422 303.688 247.422C303.323 246.422 303.141 245.328 303.141 244.141V243.484C303.141 242.109 303.344 240.885 303.75 239.812C304.156 238.729 304.708 237.812 305.406 237.062C306.104 236.312 306.896 235.745 307.781 235.359C308.667 234.974 309.583 234.781 310.531 234.781C311.74 234.781 312.781 234.99 313.656 235.406C314.542 235.823 315.266 236.406 315.828 237.156C316.391 237.896 316.807 238.771 317.078 239.781C317.349 240.781 317.484 241.875 317.484 243.062V244.359H304.859V242H314.594V241.781C314.552 241.031 314.396 240.302 314.125 239.594C313.865 238.885 313.448 238.302 312.875 237.844C312.302 237.385 311.521 237.156 310.531 237.156C309.875 237.156 309.271 237.297 308.719 237.578C308.167 237.849 307.693 238.255 307.297 238.797C306.901 239.339 306.594 240 306.375 240.781C306.156 241.562 306.047 242.464 306.047 243.484V244.141C306.047 244.943 306.156 245.698 306.375 246.406C306.604 247.104 306.932 247.719 307.359 248.25C307.797 248.781 308.323 249.198 308.938 249.5C309.562 249.802 310.271 249.953 311.062 249.953C312.083 249.953 312.948 249.745 313.656 249.328C314.365 248.911 314.984 248.354 315.516 247.656L317.266 249.047C316.901 249.599 316.438 250.125 315.875 250.625C315.312 251.125 314.62 251.531 313.797 251.844C312.984 252.156 312.021 252.312 310.906 252.312ZM323.734 238.453V252H320.828V235.094H323.578L323.734 238.453ZM323.141 242.906L321.797 242.859C321.807 241.703 321.958 240.635 322.25 239.656C322.542 238.667 322.974 237.807 323.547 237.078C324.12 236.349 324.833 235.786 325.688 235.391C326.542 234.984 327.531 234.781 328.656 234.781C329.448 234.781 330.177 234.896 330.844 235.125C331.51 235.344 332.089 235.693 332.578 236.172C333.068 236.651 333.448 237.266 333.719 238.016C333.99 238.766 334.125 239.672 334.125 240.734V252H331.234V240.875C331.234 239.99 331.083 239.281 330.781 238.75C330.49 238.219 330.073 237.833 329.531 237.594C328.99 237.344 328.354 237.219 327.625 237.219C326.771 237.219 326.057 237.37 325.484 237.672C324.911 237.974 324.453 238.391 324.109 238.922C323.766 239.453 323.516 240.062 323.359 240.75C323.214 241.427 323.141 242.146 323.141 242.906ZM334.094 241.312L332.156 241.906C332.167 240.979 332.318 240.089 332.609 239.234C332.911 238.38 333.344 237.62 333.906 236.953C334.479 236.286 335.182 235.76 336.016 235.375C336.849 234.979 337.802 234.781 338.875 234.781C339.781 234.781 340.583 234.901 341.281 235.141C341.99 235.38 342.583 235.75 343.062 236.25C343.552 236.74 343.922 237.37 344.172 238.141C344.422 238.911 344.547 239.828 344.547 240.891V252H341.641V240.859C341.641 239.911 341.49 239.177 341.188 238.656C340.896 238.125 340.479 237.755 339.938 237.547C339.406 237.328 338.771 237.219 338.031 237.219C337.396 237.219 336.833 237.328 336.344 237.547C335.854 237.766 335.443 238.068 335.109 238.453C334.776 238.828 334.521 239.26 334.344 239.75C334.177 240.24 334.094 240.76 334.094 241.312ZM351.812 238.344V258.5H348.906V235.094H351.562L351.812 238.344ZM363.203 243.406V243.734C363.203 244.964 363.057 246.104 362.766 247.156C362.474 248.198 362.047 249.104 361.484 249.875C360.932 250.646 360.25 251.245 359.438 251.672C358.625 252.099 357.693 252.312 356.641 252.312C355.568 252.312 354.62 252.135 353.797 251.781C352.974 251.427 352.276 250.911 351.703 250.234C351.13 249.557 350.672 248.745 350.328 247.797C349.995 246.849 349.766 245.781 349.641 244.594V242.844C349.766 241.594 350 240.474 350.344 239.484C350.688 238.495 351.141 237.651 351.703 236.953C352.276 236.245 352.969 235.708 353.781 235.344C354.594 234.969 355.531 234.781 356.594 234.781C357.656 234.781 358.599 234.99 359.422 235.406C360.245 235.812 360.938 236.396 361.5 237.156C362.062 237.917 362.484 238.828 362.766 239.891C363.057 240.943 363.203 242.115 363.203 243.406ZM360.297 243.734V243.406C360.297 242.562 360.208 241.771 360.031 241.031C359.854 240.281 359.578 239.625 359.203 239.062C358.839 238.49 358.37 238.042 357.797 237.719C357.224 237.385 356.542 237.219 355.75 237.219C355.021 237.219 354.385 237.344 353.844 237.594C353.312 237.844 352.859 238.182 352.484 238.609C352.109 239.026 351.802 239.505 351.562 240.047C351.333 240.578 351.161 241.13 351.047 241.703V245.75C351.255 246.479 351.547 247.167 351.922 247.812C352.297 248.448 352.797 248.964 353.422 249.359C354.047 249.745 354.833 249.938 355.781 249.938C356.562 249.938 357.234 249.776 357.797 249.453C358.37 249.12 358.839 248.667 359.203 248.094C359.578 247.521 359.854 246.865 360.031 246.125C360.208 245.375 360.297 244.578 360.297 243.734ZM369.781 237.75V252H366.891V235.094H369.703L369.781 237.75ZM375.062 235L375.047 237.688C374.807 237.635 374.578 237.604 374.359 237.594C374.151 237.573 373.911 237.562 373.641 237.562C372.974 237.562 372.385 237.667 371.875 237.875C371.365 238.083 370.932 238.375 370.578 238.75C370.224 239.125 369.943 239.573 369.734 240.094C369.536 240.604 369.406 241.167 369.344 241.781L368.531 242.25C368.531 241.229 368.63 240.271 368.828 239.375C369.036 238.479 369.354 237.688 369.781 237C370.208 236.302 370.75 235.76 371.406 235.375C372.073 234.979 372.865 234.781 373.781 234.781C373.99 234.781 374.229 234.807 374.5 234.859C374.771 234.901 374.958 234.948 375.062 235ZM384.438 252.312C383.26 252.312 382.193 252.115 381.234 251.719C380.286 251.312 379.469 250.745 378.781 250.016C378.104 249.286 377.583 248.422 377.219 247.422C376.854 246.422 376.672 245.328 376.672 244.141V243.484C376.672 242.109 376.875 240.885 377.281 239.812C377.688 238.729 378.24 237.812 378.938 237.062C379.635 236.312 380.427 235.745 381.312 235.359C382.198 234.974 383.115 234.781 384.062 234.781C385.271 234.781 386.312 234.99 387.188 235.406C388.073 235.823 388.797 236.406 389.359 237.156C389.922 237.896 390.339 238.771 390.609 239.781C390.88 240.781 391.016 241.875 391.016 243.062V244.359H378.391V242H388.125V241.781C388.083 241.031 387.927 240.302 387.656 239.594C387.396 238.885 386.979 238.302 386.406 237.844C385.833 237.385 385.052 237.156 384.062 237.156C383.406 237.156 382.802 237.297 382.25 237.578C381.698 237.849 381.224 238.255 380.828 238.797C380.432 239.339 380.125 240 379.906 240.781C379.688 241.562 379.578 242.464 379.578 243.484V244.141C379.578 244.943 379.688 245.698 379.906 246.406C380.135 247.104 380.464 247.719 380.891 248.25C381.328 248.781 381.854 249.198 382.469 249.5C383.094 249.802 383.802 249.953 384.594 249.953C385.615 249.953 386.479 249.745 387.188 249.328C387.896 248.911 388.516 248.354 389.047 247.656L390.797 249.047C390.432 249.599 389.969 250.125 389.406 250.625C388.844 251.125 388.151 251.531 387.328 251.844C386.516 252.156 385.552 252.312 384.438 252.312ZM412.969 258.5V238.344L413.219 235.094H415.875V258.5H412.969ZM401.609 243.734V243.406C401.609 242.115 401.76 240.943 402.062 239.891C402.365 238.828 402.807 237.917 403.391 237.156C403.974 236.396 404.677 235.812 405.5 235.406C406.333 234.99 407.281 234.781 408.344 234.781C409.406 234.781 410.339 234.969 411.141 235.344C411.953 235.708 412.641 236.245 413.203 236.953C413.776 237.651 414.229 238.495 414.562 239.484C414.896 240.474 415.125 241.594 415.25 242.844V244.281C415.135 245.521 414.911 246.635 414.578 247.625C414.245 248.615 413.792 249.458 413.219 250.156C412.656 250.854 411.964 251.391 411.141 251.766C410.328 252.13 409.385 252.312 408.312 252.312C407.271 252.312 406.333 252.099 405.5 251.672C404.677 251.245 403.974 250.646 403.391 249.875C402.818 249.104 402.375 248.198 402.062 247.156C401.76 246.104 401.609 244.964 401.609 243.734ZM404.516 243.406V243.734C404.516 244.578 404.604 245.375 404.781 246.125C404.958 246.865 405.229 247.521 405.594 248.094C405.969 248.667 406.438 249.12 407 249.453C407.573 249.776 408.25 249.938 409.031 249.938C409.99 249.938 410.786 249.729 411.422 249.312C412.068 248.896 412.583 248.349 412.969 247.672C413.354 246.984 413.651 246.25 413.859 245.469V241.703C413.745 241.13 413.562 240.573 413.312 240.031C413.073 239.49 412.76 239.005 412.375 238.578C411.99 238.141 411.521 237.797 410.969 237.547C410.427 237.286 409.792 237.156 409.062 237.156C408.271 237.156 407.589 237.323 407.016 237.656C406.443 237.99 405.969 238.448 405.594 239.031C405.229 239.604 404.958 240.266 404.781 241.016C404.604 241.766 404.516 242.562 404.516 243.406ZM430.859 248.094V235.094H433.766V252H431L430.859 248.094ZM431.406 244.531L432.609 244.5C432.609 245.625 432.49 246.667 432.25 247.625C432.021 248.573 431.646 249.396 431.125 250.094C430.604 250.792 429.922 251.339 429.078 251.734C428.234 252.12 427.208 252.312 426 252.312C425.177 252.312 424.422 252.193 423.734 251.953C423.057 251.714 422.474 251.344 421.984 250.844C421.495 250.344 421.115 249.693 420.844 248.891C420.583 248.089 420.453 247.125 420.453 246V235.094H423.344V246.031C423.344 246.792 423.427 247.422 423.594 247.922C423.771 248.411 424.005 248.802 424.297 249.094C424.599 249.375 424.932 249.573 425.297 249.688C425.672 249.802 426.057 249.859 426.453 249.859C427.682 249.859 428.656 249.625 429.375 249.156C430.094 248.677 430.609 248.036 430.922 247.234C431.245 246.422 431.406 245.521 431.406 244.531ZM445.188 252.312C444.01 252.312 442.943 252.115 441.984 251.719C441.036 251.312 440.219 250.745 439.531 250.016C438.854 249.286 438.333 248.422 437.969 247.422C437.604 246.422 437.422 245.328 437.422 244.141V243.484C437.422 242.109 437.625 240.885 438.031 239.812C438.438 238.729 438.99 237.812 439.688 237.062C440.385 236.312 441.177 235.745 442.062 235.359C442.948 234.974 443.865 234.781 444.812 234.781C446.021 234.781 447.062 234.99 447.938 235.406C448.823 235.823 449.547 236.406 450.109 237.156C450.672 237.896 451.089 238.771 451.359 239.781C451.63 240.781 451.766 241.875 451.766 243.062V244.359H439.141V242H448.875V241.781C448.833 241.031 448.677 240.302 448.406 239.594C448.146 238.885 447.729 238.302 447.156 237.844C446.583 237.385 445.802 237.156 444.812 237.156C444.156 237.156 443.552 237.297 443 237.578C442.448 237.849 441.974 238.255 441.578 238.797C441.182 239.339 440.875 240 440.656 240.781C440.438 241.562 440.328 242.464 440.328 243.484V244.141C440.328 244.943 440.438 245.698 440.656 246.406C440.885 247.104 441.214 247.719 441.641 248.25C442.078 248.781 442.604 249.198 443.219 249.5C443.844 249.802 444.552 249.953 445.344 249.953C446.365 249.953 447.229 249.745 447.938 249.328C448.646 248.911 449.266 248.354 449.797 247.656L451.547 249.047C451.182 249.599 450.719 250.125 450.156 250.625C449.594 251.125 448.901 251.531 448.078 251.844C447.266 252.156 446.302 252.312 445.188 252.312ZM465.969 238.344V258.5H463.062V235.094H465.719L465.969 238.344ZM477.359 243.406V243.734C477.359 244.964 477.214 246.104 476.922 247.156C476.63 248.198 476.203 249.104 475.641 249.875C475.089 250.646 474.406 251.245 473.594 251.672C472.781 252.099 471.849 252.312 470.797 252.312C469.724 252.312 468.776 252.135 467.953 251.781C467.13 251.427 466.432 250.911 465.859 250.234C465.286 249.557 464.828 248.745 464.484 247.797C464.151 246.849 463.922 245.781 463.797 244.594V242.844C463.922 241.594 464.156 240.474 464.5 239.484C464.844 238.495 465.297 237.651 465.859 236.953C466.432 236.245 467.125 235.708 467.938 235.344C468.75 234.969 469.688 234.781 470.75 234.781C471.812 234.781 472.755 234.99 473.578 235.406C474.401 235.812 475.094 236.396 475.656 237.156C476.219 237.917 476.641 238.828 476.922 239.891C477.214 240.943 477.359 242.115 477.359 243.406ZM474.453 243.734V243.406C474.453 242.562 474.365 241.771 474.188 241.031C474.01 240.281 473.734 239.625 473.359 239.062C472.995 238.49 472.526 238.042 471.953 237.719C471.38 237.385 470.698 237.219 469.906 237.219C469.177 237.219 468.542 237.344 468 237.594C467.469 237.844 467.016 238.182 466.641 238.609C466.266 239.026 465.958 239.505 465.719 240.047C465.49 240.578 465.318 241.13 465.203 241.703V245.75C465.411 246.479 465.703 247.167 466.078 247.812C466.453 248.448 466.953 248.964 467.578 249.359C468.203 249.745 468.99 249.938 469.938 249.938C470.719 249.938 471.391 249.776 471.953 249.453C472.526 249.12 472.995 248.667 473.359 248.094C473.734 247.521 474.01 246.865 474.188 246.125C474.365 245.375 474.453 244.578 474.453 243.734ZM491.391 248.094V235.094H494.297V252H491.531L491.391 248.094ZM491.938 244.531L493.141 244.5C493.141 245.625 493.021 246.667 492.781 247.625C492.552 248.573 492.177 249.396 491.656 250.094C491.135 250.792 490.453 251.339 489.609 251.734C488.766 252.12 487.74 252.312 486.531 252.312C485.708 252.312 484.953 252.193 484.266 251.953C483.589 251.714 483.005 251.344 482.516 250.844C482.026 250.344 481.646 249.693 481.375 248.891C481.115 248.089 480.984 247.125 480.984 246V235.094H483.875V246.031C483.875 246.792 483.958 247.422 484.125 247.922C484.302 248.411 484.536 248.802 484.828 249.094C485.13 249.375 485.464 249.573 485.828 249.688C486.203 249.802 486.589 249.859 486.984 249.859C488.214 249.859 489.188 249.625 489.906 249.156C490.625 248.677 491.141 248.036 491.453 247.234C491.776 246.422 491.938 245.521 491.938 244.531ZM509.359 248.719V228H512.266V252H509.609L509.359 248.719ZM497.984 243.734V243.406C497.984 242.115 498.141 240.943 498.453 239.891C498.776 238.828 499.229 237.917 499.812 237.156C500.406 236.396 501.109 235.812 501.922 235.406C502.745 234.99 503.661 234.781 504.672 234.781C505.734 234.781 506.661 234.969 507.453 235.344C508.255 235.708 508.932 236.245 509.484 236.953C510.047 237.651 510.49 238.495 510.812 239.484C511.135 240.474 511.359 241.594 511.484 242.844V244.281C511.37 245.521 511.146 246.635 510.812 247.625C510.49 248.615 510.047 249.458 509.484 250.156C508.932 250.854 508.255 251.391 507.453 251.766C506.651 252.13 505.714 252.312 504.641 252.312C503.651 252.312 502.745 252.099 501.922 251.672C501.109 251.245 500.406 250.646 499.812 249.875C499.229 249.104 498.776 248.198 498.453 247.156C498.141 246.104 497.984 244.964 497.984 243.734ZM500.891 243.406V243.734C500.891 244.578 500.974 245.37 501.141 246.109C501.318 246.849 501.589 247.5 501.953 248.062C502.318 248.625 502.781 249.068 503.344 249.391C503.906 249.703 504.578 249.859 505.359 249.859C506.318 249.859 507.104 249.656 507.719 249.25C508.344 248.844 508.844 248.307 509.219 247.641C509.594 246.974 509.885 246.25 510.094 245.469V241.703C509.969 241.13 509.786 240.578 509.547 240.047C509.318 239.505 509.016 239.026 508.641 238.609C508.276 238.182 507.823 237.844 507.281 237.594C506.75 237.344 506.12 237.219 505.391 237.219C504.599 237.219 503.917 237.385 503.344 237.719C502.781 238.042 502.318 238.49 501.953 239.062C501.589 239.625 501.318 240.281 501.141 241.031C500.974 241.771 500.891 242.562 500.891 243.406ZM523.781 252.312C522.604 252.312 521.536 252.115 520.578 251.719C519.63 251.312 518.812 250.745 518.125 250.016C517.448 249.286 516.927 248.422 516.562 247.422C516.198 246.422 516.016 245.328 516.016 244.141V243.484C516.016 242.109 516.219 240.885 516.625 239.812C517.031 238.729 517.583 237.812 518.281 237.062C518.979 236.312 519.771 235.745 520.656 235.359C521.542 234.974 522.458 234.781 523.406 234.781C524.615 234.781 525.656 234.99 526.531 235.406C527.417 235.823 528.141 236.406 528.703 237.156C529.266 237.896 529.682 238.771 529.953 239.781C530.224 240.781 530.359 241.875 530.359 243.062V244.359H517.734V242H527.469V241.781C527.427 241.031 527.271 240.302 527 239.594C526.74 238.885 526.323 238.302 525.75 237.844C525.177 237.385 524.396 237.156 523.406 237.156C522.75 237.156 522.146 237.297 521.594 237.578C521.042 237.849 520.568 238.255 520.172 238.797C519.776 239.339 519.469 240 519.25 240.781C519.031 241.562 518.922 242.464 518.922 243.484V244.141C518.922 244.943 519.031 245.698 519.25 246.406C519.479 247.104 519.807 247.719 520.234 248.25C520.672 248.781 521.198 249.198 521.812 249.5C522.438 249.802 523.146 249.953 523.938 249.953C524.958 249.953 525.823 249.745 526.531 249.328C527.24 248.911 527.859 248.354 528.391 247.656L530.141 249.047C529.776 249.599 529.312 250.125 528.75 250.625C528.188 251.125 527.495 251.531 526.672 251.844C525.859 252.156 524.896 252.312 523.781 252.312ZM536.625 237.75V252H533.734V235.094H536.547L536.625 237.75ZM541.906 235L541.891 237.688C541.651 237.635 541.422 237.604 541.203 237.594C540.995 237.573 540.755 237.562 540.484 237.562C539.818 237.562 539.229 237.667 538.719 237.875C538.208 238.083 537.776 238.375 537.422 238.75C537.068 239.125 536.786 239.573 536.578 240.094C536.38 240.604 536.25 241.167 536.188 241.781L535.375 242.25C535.375 241.229 535.474 240.271 535.672 239.375C535.88 238.479 536.198 237.688 536.625 237C537.052 236.302 537.594 235.76 538.25 235.375C538.917 234.979 539.708 234.781 540.625 234.781C540.833 234.781 541.073 234.807 541.344 234.859C541.615 234.901 541.802 234.948 541.906 235ZM542.688 250.469C542.688 249.979 542.839 249.568 543.141 249.234C543.453 248.891 543.901 248.719 544.484 248.719C545.068 248.719 545.51 248.891 545.812 249.234C546.125 249.568 546.281 249.979 546.281 250.469C546.281 250.948 546.125 251.354 545.812 251.688C545.51 252.021 545.068 252.188 544.484 252.188C543.901 252.188 543.453 252.021 543.141 251.688C542.839 251.354 542.688 250.948 542.688 250.469ZM207.031 283.078H200.953V280.625H207.031C208.208 280.625 209.161 280.438 209.891 280.062C210.62 279.688 211.151 279.167 211.484 278.5C211.828 277.833 212 277.073 212 276.219C212 275.438 211.828 274.703 211.484 274.016C211.151 273.328 210.62 272.776 209.891 272.359C209.161 271.932 208.208 271.719 207.031 271.719H201.656V292H198.641V269.25H207.031C208.75 269.25 210.203 269.547 211.391 270.141C212.578 270.734 213.479 271.557 214.094 272.609C214.708 273.651 215.016 274.844 215.016 276.188C215.016 277.646 214.708 278.891 214.094 279.922C213.479 280.953 212.578 281.74 211.391 282.281C210.203 282.812 208.75 283.078 207.031 283.078ZM225.188 292.312C224.01 292.312 222.943 292.115 221.984 291.719C221.036 291.312 220.219 290.745 219.531 290.016C218.854 289.286 218.333 288.422 217.969 287.422C217.604 286.422 217.422 285.328 217.422 284.141V283.484C217.422 282.109 217.625 280.885 218.031 279.812C218.438 278.729 218.99 277.812 219.688 277.062C220.385 276.312 221.177 275.745 222.062 275.359C222.948 274.974 223.865 274.781 224.812 274.781C226.021 274.781 227.062 274.99 227.938 275.406C228.823 275.823 229.547 276.406 230.109 277.156C230.672 277.896 231.089 278.771 231.359 279.781C231.63 280.781 231.766 281.875 231.766 283.062V284.359H219.141V282H228.875V281.781C228.833 281.031 228.677 280.302 228.406 279.594C228.146 278.885 227.729 278.302 227.156 277.844C226.583 277.385 225.802 277.156 224.812 277.156C224.156 277.156 223.552 277.297 223 277.578C222.448 277.849 221.974 278.255 221.578 278.797C221.182 279.339 220.875 280 220.656 280.781C220.438 281.562 220.328 282.464 220.328 283.484V284.141C220.328 284.943 220.438 285.698 220.656 286.406C220.885 287.104 221.214 287.719 221.641 288.25C222.078 288.781 222.604 289.198 223.219 289.5C223.844 289.802 224.552 289.953 225.344 289.953C226.365 289.953 227.229 289.745 227.938 289.328C228.646 288.911 229.266 288.354 229.797 287.656L231.547 289.047C231.182 289.599 230.719 290.125 230.156 290.625C229.594 291.125 228.901 291.531 228.078 291.844C227.266 292.156 226.302 292.312 225.188 292.312ZM241.906 289.938C242.594 289.938 243.229 289.797 243.812 289.516C244.396 289.234 244.875 288.849 245.25 288.359C245.625 287.859 245.839 287.292 245.891 286.656H248.641C248.589 287.656 248.25 288.589 247.625 289.453C247.01 290.307 246.203 291 245.203 291.531C244.203 292.052 243.104 292.312 241.906 292.312C240.635 292.312 239.526 292.089 238.578 291.641C237.641 291.193 236.859 290.578 236.234 289.797C235.62 289.016 235.156 288.12 234.844 287.109C234.542 286.089 234.391 285.01 234.391 283.875V283.219C234.391 282.083 234.542 281.01 234.844 280C235.156 278.979 235.62 278.078 236.234 277.297C236.859 276.516 237.641 275.901 238.578 275.453C239.526 275.005 240.635 274.781 241.906 274.781C243.229 274.781 244.385 275.052 245.375 275.594C246.365 276.125 247.141 276.854 247.703 277.781C248.276 278.698 248.589 279.74 248.641 280.906H245.891C245.839 280.208 245.641 279.578 245.297 279.016C244.964 278.453 244.505 278.005 243.922 277.672C243.349 277.328 242.677 277.156 241.906 277.156C241.021 277.156 240.276 277.333 239.672 277.688C239.078 278.031 238.604 278.5 238.25 279.094C237.906 279.677 237.656 280.328 237.5 281.047C237.354 281.755 237.281 282.479 237.281 283.219V283.875C237.281 284.615 237.354 285.344 237.5 286.062C237.646 286.781 237.891 287.432 238.234 288.016C238.589 288.599 239.062 289.068 239.656 289.422C240.26 289.766 241.01 289.938 241.906 289.938ZM240.312 292.156H242.391L242.203 292.984C242.807 293.089 243.354 293.339 243.844 293.734C244.344 294.13 244.594 294.781 244.594 295.688C244.594 296.177 244.49 296.62 244.281 297.016C244.083 297.422 243.786 297.766 243.391 298.047C242.995 298.339 242.5 298.562 241.906 298.719C241.323 298.875 240.641 298.953 239.859 298.953L239.75 297.281C240.229 297.281 240.661 297.229 241.047 297.125C241.443 297.021 241.755 296.854 241.984 296.625C242.224 296.396 242.344 296.099 242.344 295.734C242.344 295.391 242.255 295.12 242.078 294.922C241.901 294.724 241.625 294.573 241.25 294.469C240.885 294.375 240.411 294.307 239.828 294.266L240.312 292.156ZM261.859 289.109V280.406C261.859 279.74 261.724 279.161 261.453 278.672C261.193 278.172 260.797 277.786 260.266 277.516C259.734 277.245 259.078 277.109 258.297 277.109C257.568 277.109 256.927 277.234 256.375 277.484C255.833 277.734 255.406 278.062 255.094 278.469C254.792 278.875 254.641 279.312 254.641 279.781H251.75C251.75 279.177 251.906 278.578 252.219 277.984C252.531 277.391 252.979 276.854 253.562 276.375C254.156 275.885 254.865 275.5 255.688 275.219C256.521 274.927 257.448 274.781 258.469 274.781C259.698 274.781 260.781 274.99 261.719 275.406C262.667 275.823 263.406 276.453 263.938 277.297C264.479 278.13 264.75 279.177 264.75 280.438V288.312C264.75 288.875 264.797 289.474 264.891 290.109C264.995 290.745 265.146 291.292 265.344 291.75V292H262.328C262.182 291.667 262.068 291.224 261.984 290.672C261.901 290.109 261.859 289.589 261.859 289.109ZM262.359 281.75L262.391 283.781H259.469C258.646 283.781 257.911 283.849 257.266 283.984C256.62 284.109 256.078 284.302 255.641 284.562C255.203 284.823 254.87 285.151 254.641 285.547C254.411 285.932 254.297 286.385 254.297 286.906C254.297 287.438 254.417 287.922 254.656 288.359C254.896 288.797 255.255 289.146 255.734 289.406C256.224 289.656 256.823 289.781 257.531 289.781C258.417 289.781 259.198 289.594 259.875 289.219C260.552 288.844 261.089 288.385 261.484 287.844C261.891 287.302 262.109 286.776 262.141 286.266L263.375 287.656C263.302 288.094 263.104 288.578 262.781 289.109C262.458 289.641 262.026 290.151 261.484 290.641C260.953 291.12 260.318 291.521 259.578 291.844C258.849 292.156 258.026 292.312 257.109 292.312C255.964 292.312 254.958 292.089 254.094 291.641C253.24 291.193 252.573 290.594 252.094 289.844C251.625 289.083 251.391 288.234 251.391 287.297C251.391 286.391 251.568 285.594 251.922 284.906C252.276 284.208 252.786 283.63 253.453 283.172C254.12 282.703 254.922 282.349 255.859 282.109C256.797 281.87 257.844 281.75 259 281.75H262.359ZM287.203 289.109V280.406C287.203 279.74 287.068 279.161 286.797 278.672C286.536 278.172 286.141 277.786 285.609 277.516C285.078 277.245 284.422 277.109 283.641 277.109C282.911 277.109 282.271 277.234 281.719 277.484C281.177 277.734 280.75 278.062 280.438 278.469C280.135 278.875 279.984 279.312 279.984 279.781H277.094C277.094 279.177 277.25 278.578 277.562 277.984C277.875 277.391 278.323 276.854 278.906 276.375C279.5 275.885 280.208 275.5 281.031 275.219C281.865 274.927 282.792 274.781 283.812 274.781C285.042 274.781 286.125 274.99 287.062 275.406C288.01 275.823 288.75 276.453 289.281 277.297C289.823 278.13 290.094 279.177 290.094 280.438V288.312C290.094 288.875 290.141 289.474 290.234 290.109C290.339 290.745 290.49 291.292 290.688 291.75V292H287.672C287.526 291.667 287.411 291.224 287.328 290.672C287.245 290.109 287.203 289.589 287.203 289.109ZM287.703 281.75L287.734 283.781H284.812C283.99 283.781 283.255 283.849 282.609 283.984C281.964 284.109 281.422 284.302 280.984 284.562C280.547 284.823 280.214 285.151 279.984 285.547C279.755 285.932 279.641 286.385 279.641 286.906C279.641 287.438 279.76 287.922 280 288.359C280.24 288.797 280.599 289.146 281.078 289.406C281.568 289.656 282.167 289.781 282.875 289.781C283.76 289.781 284.542 289.594 285.219 289.219C285.896 288.844 286.432 288.385 286.828 287.844C287.234 287.302 287.453 286.776 287.484 286.266L288.719 287.656C288.646 288.094 288.448 288.578 288.125 289.109C287.802 289.641 287.37 290.151 286.828 290.641C286.297 291.12 285.661 291.521 284.922 291.844C284.193 292.156 283.37 292.312 282.453 292.312C281.307 292.312 280.302 292.089 279.438 291.641C278.583 291.193 277.917 290.594 277.438 289.844C276.969 289.083 276.734 288.234 276.734 287.297C276.734 286.391 276.911 285.594 277.266 284.906C277.62 284.208 278.13 283.63 278.797 283.172C279.464 282.703 280.266 282.349 281.203 282.109C282.141 281.87 283.188 281.75 284.344 281.75H287.703ZM294.719 275.094H297.625V294.016C297.625 295.047 297.458 295.922 297.125 296.641C296.802 297.359 296.312 297.901 295.656 298.266C295.01 298.641 294.193 298.828 293.203 298.828C292.943 298.828 292.641 298.802 292.297 298.75C291.943 298.698 291.646 298.635 291.406 298.562L291.422 296.234C291.62 296.276 291.844 296.307 292.094 296.328C292.344 296.359 292.562 296.375 292.75 296.375C293.177 296.375 293.536 296.297 293.828 296.141C294.12 295.984 294.339 295.734 294.484 295.391C294.641 295.047 294.719 294.589 294.719 294.016V275.094ZM294.422 270.609C294.422 270.141 294.568 269.745 294.859 269.422C295.151 269.099 295.573 268.938 296.125 268.938C296.688 268.938 297.115 269.099 297.406 269.422C297.698 269.745 297.844 270.141 297.844 270.609C297.844 271.057 297.698 271.443 297.406 271.766C297.115 272.078 296.688 272.234 296.125 272.234C295.573 272.234 295.151 272.078 294.859 271.766C294.568 271.443 294.422 271.057 294.422 270.609ZM312.641 288.094V275.094H315.547V292H312.781L312.641 288.094ZM313.188 284.531L314.391 284.5C314.391 285.625 314.271 286.667 314.031 287.625C313.802 288.573 313.427 289.396 312.906 290.094C312.385 290.792 311.703 291.339 310.859 291.734C310.016 292.12 308.99 292.312 307.781 292.312C306.958 292.312 306.203 292.193 305.516 291.953C304.839 291.714 304.255 291.344 303.766 290.844C303.276 290.344 302.896 289.693 302.625 288.891C302.365 288.089 302.234 287.125 302.234 286V275.094H305.125V286.031C305.125 286.792 305.208 287.422 305.375 287.922C305.552 288.411 305.786 288.802 306.078 289.094C306.38 289.375 306.714 289.573 307.078 289.688C307.453 289.802 307.839 289.859 308.234 289.859C309.464 289.859 310.438 289.625 311.156 289.156C311.875 288.677 312.391 288.036 312.703 287.234C313.026 286.422 313.188 285.521 313.188 284.531ZM330.609 288.719V268H333.516V292H330.859L330.609 288.719ZM319.234 283.734V283.406C319.234 282.115 319.391 280.943 319.703 279.891C320.026 278.828 320.479 277.917 321.062 277.156C321.656 276.396 322.359 275.812 323.172 275.406C323.995 274.99 324.911 274.781 325.922 274.781C326.984 274.781 327.911 274.969 328.703 275.344C329.505 275.708 330.182 276.245 330.734 276.953C331.297 277.651 331.74 278.495 332.062 279.484C332.385 280.474 332.609 281.594 332.734 282.844V284.281C332.62 285.521 332.396 286.635 332.062 287.625C331.74 288.615 331.297 289.458 330.734 290.156C330.182 290.854 329.505 291.391 328.703 291.766C327.901 292.13 326.964 292.312 325.891 292.312C324.901 292.312 323.995 292.099 323.172 291.672C322.359 291.245 321.656 290.646 321.062 289.875C320.479 289.104 320.026 288.198 319.703 287.156C319.391 286.104 319.234 284.964 319.234 283.734ZM322.141 283.406V283.734C322.141 284.578 322.224 285.37 322.391 286.109C322.568 286.849 322.839 287.5 323.203 288.062C323.568 288.625 324.031 289.068 324.594 289.391C325.156 289.703 325.828 289.859 326.609 289.859C327.568 289.859 328.354 289.656 328.969 289.25C329.594 288.844 330.094 288.307 330.469 287.641C330.844 286.974 331.135 286.25 331.344 285.469V281.703C331.219 281.13 331.036 280.578 330.797 280.047C330.568 279.505 330.266 279.026 329.891 278.609C329.526 278.182 329.073 277.844 328.531 277.594C328 277.344 327.37 277.219 326.641 277.219C325.849 277.219 325.167 277.385 324.594 277.719C324.031 278.042 323.568 278.49 323.203 279.062C322.839 279.625 322.568 280.281 322.391 281.031C322.224 281.771 322.141 282.562 322.141 283.406ZM347.984 289.109V280.406C347.984 279.74 347.849 279.161 347.578 278.672C347.318 278.172 346.922 277.786 346.391 277.516C345.859 277.245 345.203 277.109 344.422 277.109C343.693 277.109 343.052 277.234 342.5 277.484C341.958 277.734 341.531 278.062 341.219 278.469C340.917 278.875 340.766 279.312 340.766 279.781H337.875C337.875 279.177 338.031 278.578 338.344 277.984C338.656 277.391 339.104 276.854 339.688 276.375C340.281 275.885 340.99 275.5 341.812 275.219C342.646 274.927 343.573 274.781 344.594 274.781C345.823 274.781 346.906 274.99 347.844 275.406C348.792 275.823 349.531 276.453 350.062 277.297C350.604 278.13 350.875 279.177 350.875 280.438V288.312C350.875 288.875 350.922 289.474 351.016 290.109C351.12 290.745 351.271 291.292 351.469 291.75V292H348.453C348.307 291.667 348.193 291.224 348.109 290.672C348.026 290.109 347.984 289.589 347.984 289.109ZM348.484 281.75L348.516 283.781H345.594C344.771 283.781 344.036 283.849 343.391 283.984C342.745 284.109 342.203 284.302 341.766 284.562C341.328 284.823 340.995 285.151 340.766 285.547C340.536 285.932 340.422 286.385 340.422 286.906C340.422 287.438 340.542 287.922 340.781 288.359C341.021 288.797 341.38 289.146 341.859 289.406C342.349 289.656 342.948 289.781 343.656 289.781C344.542 289.781 345.323 289.594 346 289.219C346.677 288.844 347.214 288.385 347.609 287.844C348.016 287.302 348.234 286.776 348.266 286.266L349.5 287.656C349.427 288.094 349.229 288.578 348.906 289.109C348.583 289.641 348.151 290.151 347.609 290.641C347.078 291.12 346.443 291.521 345.703 291.844C344.974 292.156 344.151 292.312 343.234 292.312C342.089 292.312 341.083 292.089 340.219 291.641C339.365 291.193 338.698 290.594 338.219 289.844C337.75 289.083 337.516 288.234 337.516 287.297C337.516 286.391 337.693 285.594 338.047 284.906C338.401 284.208 338.911 283.63 339.578 283.172C340.245 282.703 341.047 282.349 341.984 282.109C342.922 281.87 343.969 281.75 345.125 281.75H348.484ZM373.203 287.516C373.203 287.099 373.109 286.714 372.922 286.359C372.745 285.995 372.375 285.667 371.812 285.375C371.26 285.073 370.427 284.812 369.312 284.594C368.375 284.396 367.526 284.161 366.766 283.891C366.016 283.62 365.375 283.292 364.844 282.906C364.323 282.521 363.922 282.068 363.641 281.547C363.359 281.026 363.219 280.417 363.219 279.719C363.219 279.052 363.365 278.422 363.656 277.828C363.958 277.234 364.38 276.708 364.922 276.25C365.474 275.792 366.135 275.432 366.906 275.172C367.677 274.911 368.536 274.781 369.484 274.781C370.839 274.781 371.995 275.021 372.953 275.5C373.911 275.979 374.646 276.62 375.156 277.422C375.667 278.214 375.922 279.094 375.922 280.062H373.031C373.031 279.594 372.891 279.141 372.609 278.703C372.339 278.255 371.938 277.885 371.406 277.594C370.885 277.302 370.245 277.156 369.484 277.156C368.682 277.156 368.031 277.281 367.531 277.531C367.042 277.771 366.682 278.078 366.453 278.453C366.234 278.828 366.125 279.224 366.125 279.641C366.125 279.953 366.177 280.234 366.281 280.484C366.396 280.724 366.594 280.948 366.875 281.156C367.156 281.354 367.552 281.542 368.062 281.719C368.573 281.896 369.224 282.073 370.016 282.25C371.401 282.562 372.542 282.938 373.438 283.375C374.333 283.812 375 284.349 375.438 284.984C375.875 285.62 376.094 286.391 376.094 287.297C376.094 288.036 375.938 288.714 375.625 289.328C375.323 289.943 374.88 290.474 374.297 290.922C373.724 291.359 373.036 291.703 372.234 291.953C371.443 292.193 370.552 292.312 369.562 292.312C368.073 292.312 366.812 292.047 365.781 291.516C364.75 290.984 363.969 290.297 363.438 289.453C362.906 288.609 362.641 287.719 362.641 286.781H365.547C365.589 287.573 365.818 288.203 366.234 288.672C366.651 289.13 367.161 289.458 367.766 289.656C368.37 289.844 368.969 289.938 369.562 289.938C370.354 289.938 371.016 289.833 371.547 289.625C372.089 289.417 372.5 289.13 372.781 288.766C373.062 288.401 373.203 287.984 373.203 287.516ZM386.906 292.312C385.729 292.312 384.661 292.115 383.703 291.719C382.755 291.312 381.938 290.745 381.25 290.016C380.573 289.286 380.052 288.422 379.688 287.422C379.323 286.422 379.141 285.328 379.141 284.141V283.484C379.141 282.109 379.344 280.885 379.75 279.812C380.156 278.729 380.708 277.812 381.406 277.062C382.104 276.312 382.896 275.745 383.781 275.359C384.667 274.974 385.583 274.781 386.531 274.781C387.74 274.781 388.781 274.99 389.656 275.406C390.542 275.823 391.266 276.406 391.828 277.156C392.391 277.896 392.807 278.771 393.078 279.781C393.349 280.781 393.484 281.875 393.484 283.062V284.359H380.859V282H390.594V281.781C390.552 281.031 390.396 280.302 390.125 279.594C389.865 278.885 389.448 278.302 388.875 277.844C388.302 277.385 387.521 277.156 386.531 277.156C385.875 277.156 385.271 277.297 384.719 277.578C384.167 277.849 383.693 278.255 383.297 278.797C382.901 279.339 382.594 280 382.375 280.781C382.156 281.562 382.047 282.464 382.047 283.484V284.141C382.047 284.943 382.156 285.698 382.375 286.406C382.604 287.104 382.932 287.719 383.359 288.25C383.797 288.781 384.323 289.198 384.938 289.5C385.562 289.802 386.271 289.953 387.062 289.953C388.083 289.953 388.948 289.745 389.656 289.328C390.365 288.911 390.984 288.354 391.516 287.656L393.266 289.047C392.901 289.599 392.438 290.125 391.875 290.625C391.312 291.125 390.62 291.531 389.797 291.844C388.984 292.156 388.021 292.312 386.906 292.312ZM399.734 278.453V292H396.828V275.094H399.578L399.734 278.453ZM399.141 282.906L397.797 282.859C397.807 281.703 397.958 280.635 398.25 279.656C398.542 278.667 398.974 277.807 399.547 277.078C400.12 276.349 400.833 275.786 401.688 275.391C402.542 274.984 403.531 274.781 404.656 274.781C405.448 274.781 406.177 274.896 406.844 275.125C407.51 275.344 408.089 275.693 408.578 276.172C409.068 276.651 409.448 277.266 409.719 278.016C409.99 278.766 410.125 279.672 410.125 280.734V292H407.234V280.875C407.234 279.99 407.083 279.281 406.781 278.75C406.49 278.219 406.073 277.833 405.531 277.594C404.99 277.344 404.354 277.219 403.625 277.219C402.771 277.219 402.057 277.37 401.484 277.672C400.911 277.974 400.453 278.391 400.109 278.922C399.766 279.453 399.516 280.062 399.359 280.75C399.214 281.427 399.141 282.146 399.141 282.906ZM410.094 281.312L408.156 281.906C408.167 280.979 408.318 280.089 408.609 279.234C408.911 278.38 409.344 277.62 409.906 276.953C410.479 276.286 411.182 275.76 412.016 275.375C412.849 274.979 413.802 274.781 414.875 274.781C415.781 274.781 416.583 274.901 417.281 275.141C417.99 275.38 418.583 275.75 419.062 276.25C419.552 276.74 419.922 277.37 420.172 278.141C420.422 278.911 420.547 279.828 420.547 280.891V292H417.641V280.859C417.641 279.911 417.49 279.177 417.188 278.656C416.896 278.125 416.479 277.755 415.938 277.547C415.406 277.328 414.771 277.219 414.031 277.219C413.396 277.219 412.833 277.328 412.344 277.547C411.854 277.766 411.443 278.068 411.109 278.453C410.776 278.828 410.521 279.26 410.344 279.75C410.177 280.24 410.094 280.76 410.094 281.312ZM427.812 278.344V298.5H424.906V275.094H427.562L427.812 278.344ZM439.203 283.406V283.734C439.203 284.964 439.057 286.104 438.766 287.156C438.474 288.198 438.047 289.104 437.484 289.875C436.932 290.646 436.25 291.245 435.438 291.672C434.625 292.099 433.693 292.312 432.641 292.312C431.568 292.312 430.62 292.135 429.797 291.781C428.974 291.427 428.276 290.911 427.703 290.234C427.13 289.557 426.672 288.745 426.328 287.797C425.995 286.849 425.766 285.781 425.641 284.594V282.844C425.766 281.594 426 280.474 426.344 279.484C426.688 278.495 427.141 277.651 427.703 276.953C428.276 276.245 428.969 275.708 429.781 275.344C430.594 274.969 431.531 274.781 432.594 274.781C433.656 274.781 434.599 274.99 435.422 275.406C436.245 275.812 436.938 276.396 437.5 277.156C438.062 277.917 438.484 278.828 438.766 279.891C439.057 280.943 439.203 282.115 439.203 283.406ZM436.297 283.734V283.406C436.297 282.562 436.208 281.771 436.031 281.031C435.854 280.281 435.578 279.625 435.203 279.062C434.839 278.49 434.37 278.042 433.797 277.719C433.224 277.385 432.542 277.219 431.75 277.219C431.021 277.219 430.385 277.344 429.844 277.594C429.312 277.844 428.859 278.182 428.484 278.609C428.109 279.026 427.802 279.505 427.562 280.047C427.333 280.578 427.161 281.13 427.047 281.703V285.75C427.255 286.479 427.547 287.167 427.922 287.812C428.297 288.448 428.797 288.964 429.422 289.359C430.047 289.745 430.833 289.938 431.781 289.938C432.562 289.938 433.234 289.776 433.797 289.453C434.37 289.12 434.839 288.667 435.203 288.094C435.578 287.521 435.854 286.865 436.031 286.125C436.208 285.375 436.297 284.578 436.297 283.734ZM445.781 277.75V292H442.891V275.094H445.703L445.781 277.75ZM451.062 275L451.047 277.688C450.807 277.635 450.578 277.604 450.359 277.594C450.151 277.573 449.911 277.562 449.641 277.562C448.974 277.562 448.385 277.667 447.875 277.875C447.365 278.083 446.932 278.375 446.578 278.75C446.224 279.125 445.943 279.573 445.734 280.094C445.536 280.604 445.406 281.167 445.344 281.781L444.531 282.25C444.531 281.229 444.63 280.271 444.828 279.375C445.036 278.479 445.354 277.688 445.781 277C446.208 276.302 446.75 275.76 447.406 275.375C448.073 274.979 448.865 274.781 449.781 274.781C449.99 274.781 450.229 274.807 450.5 274.859C450.771 274.901 450.958 274.948 451.062 275ZM460.438 292.312C459.26 292.312 458.193 292.115 457.234 291.719C456.286 291.312 455.469 290.745 454.781 290.016C454.104 289.286 453.583 288.422 453.219 287.422C452.854 286.422 452.672 285.328 452.672 284.141V283.484C452.672 282.109 452.875 280.885 453.281 279.812C453.688 278.729 454.24 277.812 454.938 277.062C455.635 276.312 456.427 275.745 457.312 275.359C458.198 274.974 459.115 274.781 460.062 274.781C461.271 274.781 462.312 274.99 463.188 275.406C464.073 275.823 464.797 276.406 465.359 277.156C465.922 277.896 466.339 278.771 466.609 279.781C466.88 280.781 467.016 281.875 467.016 283.062V284.359H454.391V282H464.125V281.781C464.083 281.031 463.927 280.302 463.656 279.594C463.396 278.885 462.979 278.302 462.406 277.844C461.833 277.385 461.052 277.156 460.062 277.156C459.406 277.156 458.802 277.297 458.25 277.578C457.698 277.849 457.224 278.255 456.828 278.797C456.432 279.339 456.125 280 455.906 280.781C455.688 281.562 455.578 282.464 455.578 283.484V284.141C455.578 284.943 455.688 285.698 455.906 286.406C456.135 287.104 456.464 287.719 456.891 288.25C457.328 288.781 457.854 289.198 458.469 289.5C459.094 289.802 459.802 289.953 460.594 289.953C461.615 289.953 462.479 289.745 463.188 289.328C463.896 288.911 464.516 288.354 465.047 287.656L466.797 289.047C466.432 289.599 465.969 290.125 465.406 290.625C464.844 291.125 464.151 291.531 463.328 291.844C462.516 292.156 461.552 292.312 460.438 292.312ZM488.969 298.5V278.344L489.219 275.094H491.875V298.5H488.969ZM477.609 283.734V283.406C477.609 282.115 477.76 280.943 478.062 279.891C478.365 278.828 478.807 277.917 479.391 277.156C479.974 276.396 480.677 275.812 481.5 275.406C482.333 274.99 483.281 274.781 484.344 274.781C485.406 274.781 486.339 274.969 487.141 275.344C487.953 275.708 488.641 276.245 489.203 276.953C489.776 277.651 490.229 278.495 490.562 279.484C490.896 280.474 491.125 281.594 491.25 282.844V284.281C491.135 285.521 490.911 286.635 490.578 287.625C490.245 288.615 489.792 289.458 489.219 290.156C488.656 290.854 487.964 291.391 487.141 291.766C486.328 292.13 485.385 292.312 484.312 292.312C483.271 292.312 482.333 292.099 481.5 291.672C480.677 291.245 479.974 290.646 479.391 289.875C478.818 289.104 478.375 288.198 478.062 287.156C477.76 286.104 477.609 284.964 477.609 283.734ZM480.516 283.406V283.734C480.516 284.578 480.604 285.375 480.781 286.125C480.958 286.865 481.229 287.521 481.594 288.094C481.969 288.667 482.438 289.12 483 289.453C483.573 289.776 484.25 289.938 485.031 289.938C485.99 289.938 486.786 289.729 487.422 289.312C488.068 288.896 488.583 288.349 488.969 287.672C489.354 286.984 489.651 286.25 489.859 285.469V281.703C489.745 281.13 489.562 280.573 489.312 280.031C489.073 279.49 488.76 279.005 488.375 278.578C487.99 278.141 487.521 277.797 486.969 277.547C486.427 277.286 485.792 277.156 485.062 277.156C484.271 277.156 483.589 277.323 483.016 277.656C482.443 277.99 481.969 278.448 481.594 279.031C481.229 279.604 480.958 280.266 480.781 281.016C480.604 281.766 480.516 282.562 480.516 283.406ZM506.859 288.094V275.094H509.766V292H507L506.859 288.094ZM507.406 284.531L508.609 284.5C508.609 285.625 508.49 286.667 508.25 287.625C508.021 288.573 507.646 289.396 507.125 290.094C506.604 290.792 505.922 291.339 505.078 291.734C504.234 292.12 503.208 292.312 502 292.312C501.177 292.312 500.422 292.193 499.734 291.953C499.057 291.714 498.474 291.344 497.984 290.844C497.495 290.344 497.115 289.693 496.844 288.891C496.583 288.089 496.453 287.125 496.453 286V275.094H499.344V286.031C499.344 286.792 499.427 287.422 499.594 287.922C499.771 288.411 500.005 288.802 500.297 289.094C500.599 289.375 500.932 289.573 501.297 289.688C501.672 289.802 502.057 289.859 502.453 289.859C503.682 289.859 504.656 289.625 505.375 289.156C506.094 288.677 506.609 288.036 506.922 287.234C507.245 286.422 507.406 285.521 507.406 284.531ZM521.188 292.312C520.01 292.312 518.943 292.115 517.984 291.719C517.036 291.312 516.219 290.745 515.531 290.016C514.854 289.286 514.333 288.422 513.969 287.422C513.604 286.422 513.422 285.328 513.422 284.141V283.484C513.422 282.109 513.625 280.885 514.031 279.812C514.438 278.729 514.99 277.812 515.688 277.062C516.385 276.312 517.177 275.745 518.062 275.359C518.948 274.974 519.865 274.781 520.812 274.781C522.021 274.781 523.062 274.99 523.938 275.406C524.823 275.823 525.547 276.406 526.109 277.156C526.672 277.896 527.089 278.771 527.359 279.781C527.63 280.781 527.766 281.875 527.766 283.062V284.359H515.141V282H524.875V281.781C524.833 281.031 524.677 280.302 524.406 279.594C524.146 278.885 523.729 278.302 523.156 277.844C522.583 277.385 521.802 277.156 520.812 277.156C520.156 277.156 519.552 277.297 519 277.578C518.448 277.849 517.974 278.255 517.578 278.797C517.182 279.339 516.875 280 516.656 280.781C516.438 281.562 516.328 282.464 516.328 283.484V284.141C516.328 284.943 516.438 285.698 516.656 286.406C516.885 287.104 517.214 287.719 517.641 288.25C518.078 288.781 518.604 289.198 519.219 289.5C519.844 289.802 520.552 289.953 521.344 289.953C522.365 289.953 523.229 289.745 523.938 289.328C524.646 288.911 525.266 288.354 525.797 287.656L527.547 289.047C527.182 289.599 526.719 290.125 526.156 290.625C525.594 291.125 524.901 291.531 524.078 291.844C523.266 292.156 522.302 292.312 521.188 292.312ZM541.969 278.344V298.5H539.062V275.094H541.719L541.969 278.344ZM553.359 283.406V283.734C553.359 284.964 553.214 286.104 552.922 287.156C552.63 288.198 552.203 289.104 551.641 289.875C551.089 290.646 550.406 291.245 549.594 291.672C548.781 292.099 547.849 292.312 546.797 292.312C545.724 292.312 544.776 292.135 543.953 291.781C543.13 291.427 542.432 290.911 541.859 290.234C541.286 289.557 540.828 288.745 540.484 287.797C540.151 286.849 539.922 285.781 539.797 284.594V282.844C539.922 281.594 540.156 280.474 540.5 279.484C540.844 278.495 541.297 277.651 541.859 276.953C542.432 276.245 543.125 275.708 543.938 275.344C544.75 274.969 545.688 274.781 546.75 274.781C547.812 274.781 548.755 274.99 549.578 275.406C550.401 275.812 551.094 276.396 551.656 277.156C552.219 277.917 552.641 278.828 552.922 279.891C553.214 280.943 553.359 282.115 553.359 283.406ZM550.453 283.734V283.406C550.453 282.562 550.365 281.771 550.188 281.031C550.01 280.281 549.734 279.625 549.359 279.062C548.995 278.49 548.526 278.042 547.953 277.719C547.38 277.385 546.698 277.219 545.906 277.219C545.177 277.219 544.542 277.344 544 277.594C543.469 277.844 543.016 278.182 542.641 278.609C542.266 279.026 541.958 279.505 541.719 280.047C541.49 280.578 541.318 281.13 541.203 281.703V285.75C541.411 286.479 541.703 287.167 542.078 287.812C542.453 288.448 542.953 288.964 543.578 289.359C544.203 289.745 544.99 289.938 545.938 289.938C546.719 289.938 547.391 289.776 547.953 289.453C548.526 289.12 548.995 288.667 549.359 288.094C549.734 287.521 550.01 286.865 550.188 286.125C550.365 285.375 550.453 284.578 550.453 283.734ZM559.938 277.75V292H557.047V275.094H559.859L559.938 277.75ZM565.219 275L565.203 277.688C564.964 277.635 564.734 277.604 564.516 277.594C564.307 277.573 564.068 277.562 563.797 277.562C563.13 277.562 562.542 277.667 562.031 277.875C561.521 278.083 561.089 278.375 560.734 278.75C560.38 279.125 560.099 279.573 559.891 280.094C559.693 280.604 559.562 281.167 559.5 281.781L558.688 282.25C558.688 281.229 558.786 280.271 558.984 279.375C559.193 278.479 559.51 277.688 559.938 277C560.365 276.302 560.906 275.76 561.562 275.375C562.229 274.979 563.021 274.781 563.938 274.781C564.146 274.781 564.385 274.807 564.656 274.859C564.927 274.901 565.115 274.948 565.219 275ZM574.594 292.312C573.417 292.312 572.349 292.115 571.391 291.719C570.443 291.312 569.625 290.745 568.938 290.016C568.26 289.286 567.74 288.422 567.375 287.422C567.01 286.422 566.828 285.328 566.828 284.141V283.484C566.828 282.109 567.031 280.885 567.438 279.812C567.844 278.729 568.396 277.812 569.094 277.062C569.792 276.312 570.583 275.745 571.469 275.359C572.354 274.974 573.271 274.781 574.219 274.781C575.427 274.781 576.469 274.99 577.344 275.406C578.229 275.823 578.953 276.406 579.516 277.156C580.078 277.896 580.495 278.771 580.766 279.781C581.036 280.781 581.172 281.875 581.172 283.062V284.359H568.547V282H578.281V281.781C578.24 281.031 578.083 280.302 577.812 279.594C577.552 278.885 577.135 278.302 576.562 277.844C575.99 277.385 575.208 277.156 574.219 277.156C573.562 277.156 572.958 277.297 572.406 277.578C571.854 277.849 571.38 278.255 570.984 278.797C570.589 279.339 570.281 280 570.062 280.781C569.844 281.562 569.734 282.464 569.734 283.484V284.141C569.734 284.943 569.844 285.698 570.062 286.406C570.292 287.104 570.62 287.719 571.047 288.25C571.484 288.781 572.01 289.198 572.625 289.5C573.25 289.802 573.958 289.953 574.75 289.953C575.771 289.953 576.635 289.745 577.344 289.328C578.052 288.911 578.672 288.354 579.203 287.656L580.953 289.047C580.589 289.599 580.125 290.125 579.562 290.625C579 291.125 578.307 291.531 577.484 291.844C576.672 292.156 575.708 292.312 574.594 292.312ZM591.312 289.938C592 289.938 592.635 289.797 593.219 289.516C593.802 289.234 594.281 288.849 594.656 288.359C595.031 287.859 595.245 287.292 595.297 286.656H598.047C597.995 287.656 597.656 288.589 597.031 289.453C596.417 290.307 595.609 291 594.609 291.531C593.609 292.052 592.51 292.312 591.312 292.312C590.042 292.312 588.932 292.089 587.984 291.641C587.047 291.193 586.266 290.578 585.641 289.797C585.026 289.016 584.562 288.12 584.25 287.109C583.948 286.089 583.797 285.01 583.797 283.875V283.219C583.797 282.083 583.948 281.01 584.25 280C584.562 278.979 585.026 278.078 585.641 277.297C586.266 276.516 587.047 275.901 587.984 275.453C588.932 275.005 590.042 274.781 591.312 274.781C592.635 274.781 593.792 275.052 594.781 275.594C595.771 276.125 596.547 276.854 597.109 277.781C597.682 278.698 597.995 279.74 598.047 280.906H595.297C595.245 280.208 595.047 279.578 594.703 279.016C594.37 278.453 593.911 278.005 593.328 277.672C592.755 277.328 592.083 277.156 591.312 277.156C590.427 277.156 589.682 277.333 589.078 277.688C588.484 278.031 588.01 278.5 587.656 279.094C587.312 279.677 587.062 280.328 586.906 281.047C586.76 281.755 586.688 282.479 586.688 283.219V283.875C586.688 284.615 586.76 285.344 586.906 286.062C587.052 286.781 587.297 287.432 587.641 288.016C587.995 288.599 588.469 289.068 589.062 289.422C589.667 289.766 590.417 289.938 591.312 289.938ZM604.438 275.094V292H601.531V275.094H604.438ZM601.312 270.609C601.312 270.141 601.453 269.745 601.734 269.422C602.026 269.099 602.453 268.938 603.016 268.938C603.568 268.938 603.99 269.099 604.281 269.422C604.583 269.745 604.734 270.141 604.734 270.609C604.734 271.057 604.583 271.443 604.281 271.766C603.99 272.078 603.568 272.234 603.016 272.234C602.453 272.234 602.026 272.078 601.734 271.766C601.453 271.443 601.312 271.057 601.312 270.609ZM618.922 287.516C618.922 287.099 618.828 286.714 618.641 286.359C618.464 285.995 618.094 285.667 617.531 285.375C616.979 285.073 616.146 284.812 615.031 284.594C614.094 284.396 613.245 284.161 612.484 283.891C611.734 283.62 611.094 283.292 610.562 282.906C610.042 282.521 609.641 282.068 609.359 281.547C609.078 281.026 608.938 280.417 608.938 279.719C608.938 279.052 609.083 278.422 609.375 277.828C609.677 277.234 610.099 276.708 610.641 276.25C611.193 275.792 611.854 275.432 612.625 275.172C613.396 274.911 614.255 274.781 615.203 274.781C616.557 274.781 617.714 275.021 618.672 275.5C619.63 275.979 620.365 276.62 620.875 277.422C621.385 278.214 621.641 279.094 621.641 280.062H618.75C618.75 279.594 618.609 279.141 618.328 278.703C618.057 278.255 617.656 277.885 617.125 277.594C616.604 277.302 615.964 277.156 615.203 277.156C614.401 277.156 613.75 277.281 613.25 277.531C612.76 277.771 612.401 278.078 612.172 278.453C611.953 278.828 611.844 279.224 611.844 279.641C611.844 279.953 611.896 280.234 612 280.484C612.115 280.724 612.312 280.948 612.594 281.156C612.875 281.354 613.271 281.542 613.781 281.719C614.292 281.896 614.943 282.073 615.734 282.25C617.12 282.562 618.26 282.938 619.156 283.375C620.052 283.812 620.719 284.349 621.156 284.984C621.594 285.62 621.812 286.391 621.812 287.297C621.812 288.036 621.656 288.714 621.344 289.328C621.042 289.943 620.599 290.474 620.016 290.922C619.443 291.359 618.755 291.703 617.953 291.953C617.161 292.193 616.271 292.312 615.281 292.312C613.792 292.312 612.531 292.047 611.5 291.516C610.469 290.984 609.688 290.297 609.156 289.453C608.625 288.609 608.359 287.719 608.359 286.781H611.266C611.307 287.573 611.536 288.203 611.953 288.672C612.37 289.13 612.88 289.458 613.484 289.656C614.089 289.844 614.688 289.938 615.281 289.938C616.073 289.938 616.734 289.833 617.266 289.625C617.807 289.417 618.219 289.13 618.5 288.766C618.781 288.401 618.922 287.984 618.922 287.516ZM635.578 289.109V280.406C635.578 279.74 635.443 279.161 635.172 278.672C634.911 278.172 634.516 277.786 633.984 277.516C633.453 277.245 632.797 277.109 632.016 277.109C631.286 277.109 630.646 277.234 630.094 277.484C629.552 277.734 629.125 278.062 628.812 278.469C628.51 278.875 628.359 279.312 628.359 279.781H625.469C625.469 279.177 625.625 278.578 625.938 277.984C626.25 277.391 626.698 276.854 627.281 276.375C627.875 275.885 628.583 275.5 629.406 275.219C630.24 274.927 631.167 274.781 632.188 274.781C633.417 274.781 634.5 274.99 635.438 275.406C636.385 275.823 637.125 276.453 637.656 277.297C638.198 278.13 638.469 279.177 638.469 280.438V288.312C638.469 288.875 638.516 289.474 638.609 290.109C638.714 290.745 638.865 291.292 639.062 291.75V292H636.047C635.901 291.667 635.786 291.224 635.703 290.672C635.62 290.109 635.578 289.589 635.578 289.109ZM636.078 281.75L636.109 283.781H633.188C632.365 283.781 631.63 283.849 630.984 283.984C630.339 284.109 629.797 284.302 629.359 284.562C628.922 284.823 628.589 285.151 628.359 285.547C628.13 285.932 628.016 286.385 628.016 286.906C628.016 287.438 628.135 287.922 628.375 288.359C628.615 288.797 628.974 289.146 629.453 289.406C629.943 289.656 630.542 289.781 631.25 289.781C632.135 289.781 632.917 289.594 633.594 289.219C634.271 288.844 634.807 288.385 635.203 287.844C635.609 287.302 635.828 286.776 635.859 286.266L637.094 287.656C637.021 288.094 636.823 288.578 636.5 289.109C636.177 289.641 635.745 290.151 635.203 290.641C634.672 291.12 634.036 291.521 633.297 291.844C632.568 292.156 631.745 292.312 630.828 292.312C629.682 292.312 628.677 292.089 627.812 291.641C626.958 291.193 626.292 290.594 625.812 289.844C625.344 289.083 625.109 288.234 625.109 287.297C625.109 286.391 625.286 285.594 625.641 284.906C625.995 284.208 626.505 283.63 627.172 283.172C627.839 282.703 628.641 282.349 629.578 282.109C630.516 281.87 631.562 281.75 632.719 281.75H636.078ZM645.906 277.75V292H643.016V275.094H645.828L645.906 277.75ZM651.188 275L651.172 277.688C650.932 277.635 650.703 277.604 650.484 277.594C650.276 277.573 650.036 277.562 649.766 277.562C649.099 277.562 648.51 277.667 648 277.875C647.49 278.083 647.057 278.375 646.703 278.75C646.349 279.125 646.068 279.573 645.859 280.094C645.661 280.604 645.531 281.167 645.469 281.781L644.656 282.25C644.656 281.229 644.755 280.271 644.953 279.375C645.161 278.479 645.479 277.688 645.906 277C646.333 276.302 646.875 275.76 647.531 275.375C648.198 274.979 648.99 274.781 649.906 274.781C650.115 274.781 650.354 274.807 650.625 274.859C650.896 274.901 651.083 274.948 651.188 275ZM651.969 290.469C651.969 289.979 652.12 289.568 652.422 289.234C652.734 288.891 653.182 288.719 653.766 288.719C654.349 288.719 654.792 288.891 655.094 289.234C655.406 289.568 655.562 289.979 655.562 290.469C655.562 290.948 655.406 291.354 655.094 291.688C654.792 292.021 654.349 292.188 653.766 292.188C653.182 292.188 652.734 292.021 652.422 291.688C652.12 291.354 651.969 290.948 651.969 290.469Z" fill="#737380"/>
<path d="M289.93 185.299H272.867L283.119 150.401H274.449L260.207 197H243.144L271.353 102.632H288.416L278.784 135.74H287.453L301.145 91H318.208L289.93 185.299Z" fill="#E02041"/>
<path d="M319.584 102.633H352.128L347.243 117.5H332.45L327.084 135.671H341.945L337.267 150.333H322.749L317.038 169.536H332.863L327.152 185.23H295.228L319.584 102.633Z" fill="#E02041"/>
<path d="M347.312 197H330.111L357.563 102.633H388.8C392.515 102.633 394.992 103.665 396.299 105.799C397.607 107.933 397.813 110.342 396.988 113.095L388.731 141.178C388.318 142.417 387.561 143.518 386.392 144.551C385.222 145.583 383.571 146.065 381.438 146.065C382.745 146.271 383.846 147.097 384.741 148.543C385.635 149.988 385.635 152.191 384.741 155.151L375.865 185.299H358.733L368.228 152.879C368.434 152.191 368.503 151.571 368.297 150.952C368.09 150.333 367.471 150.057 366.439 150.057H360.728L347.312 197ZM370.154 137.874C370.98 137.874 371.737 137.668 372.494 137.255C373.182 136.842 373.732 136.016 374.145 134.708L378.686 119.358C379.374 117.087 378.479 115.917 376.071 115.917H370.705L364.237 137.874H370.154Z" fill="#E02041"/>
<path d="M438.957 102.633C441.641 102.633 443.567 103.596 444.806 105.523C446.044 107.451 446.319 109.653 445.631 112.062L426.642 176.557C425.61 179.999 423.821 182.27 421.344 183.509C418.867 184.748 416.184 185.299 413.363 185.299H392.997C391.552 185.299 390.245 185.023 389.006 184.542C387.768 184.06 386.805 183.303 385.979 182.339C385.153 181.375 384.672 180.136 384.397 178.76C384.121 177.383 384.259 175.8 384.809 174.01L403.455 110.686C404.074 108.277 405.313 106.281 407.17 104.835C409.028 103.39 411.367 102.633 414.188 102.633H438.957ZM421.069 115.917C420.243 115.917 419.624 116.123 419.28 116.468C418.867 116.881 418.661 117.362 418.454 117.913L403.249 169.399C402.836 170.775 403.386 171.464 404.831 171.464H409.235C410.679 171.464 411.574 170.775 411.987 169.399L427.123 117.982C427.467 116.536 426.917 115.848 425.403 115.848H421.069V115.917Z" fill="#E02041"/>
<path d="M227.443 111.649H238.52C239.965 111.649 240.86 112.062 241.272 112.82C241.685 113.577 241.754 114.471 241.479 115.573L238.864 124.521C238.727 125.071 238.383 125.553 237.832 125.966C237.282 126.448 236.456 126.586 235.424 126.586C235.975 126.586 236.387 126.723 236.663 126.93C237.007 127.136 237.213 127.412 237.351 127.756C237.488 128.1 237.557 128.444 237.557 128.857C237.557 129.27 237.488 129.683 237.419 130.027L234.943 138.218C234.667 139.182 234.117 139.939 233.429 140.49C232.741 141.04 231.64 141.316 230.333 141.316H218.705L227.443 111.649ZM228.544 136.429C228.819 136.429 229.094 136.36 229.301 136.291C229.507 136.153 229.713 135.878 229.851 135.465L231.64 129.477C231.778 129.064 231.778 128.788 231.64 128.513C231.502 128.238 231.227 128.169 230.814 128.169H228.888L226.411 136.497H228.544V136.429ZM231.915 124.177C232.328 124.177 232.672 124.108 232.878 123.97C233.085 123.833 233.291 123.557 233.429 123.075L235.011 117.707C235.149 117.294 235.149 117.018 235.08 116.812C234.943 116.605 234.667 116.468 234.254 116.468H232.259L229.989 124.177H231.915Z" fill="#41414D"/>
<path d="M244.781 111.649H256.478L254.895 117.018H249.391L247.465 123.557H252.831L251.249 128.857H245.882L243.818 135.74H249.529L247.465 141.384H236.043L244.781 111.649Z" fill="#41414D"/>
<path d="M214.99 146.547L213.407 151.916H209.21L202.123 176.213H196L203.224 151.847H198.959L200.541 146.478H214.99V146.547Z" fill="#41414D"/>
<path d="M223.315 176.213H217.191L220.838 163.686H217.742L214.026 176.213H207.903L216.641 146.547H222.764L219.324 158.455H222.42L225.929 146.547H232.053L223.315 176.213Z" fill="#41414D"/>
<path d="M233.979 146.547H245.676L244.093 151.916H238.589L236.663 158.455H242.029L240.447 163.755H235.08L233.016 170.638H238.727L236.663 176.282H225.241L233.979 146.547Z" fill="#41414D"/>
</svg>
